<?xml version="1.0" encoding="UTF-8" standalone="no"?>
<!-- Created with Inkscape (http://www.inkscape.org/) -->

<svg
   version="1.1"
   id="svg2244"
   width="1813"
   height="276"
   viewBox="0 0 1813 276"
   sodipodi:docname="fsr-ia-logo-breit-white.svg"
   inkscape:version="1.3.2 (091e20ef0f, 2023-11-25)"
   xml:space="preserve"
   xmlns:inkscape="http://www.inkscape.org/namespaces/inkscape"
   xmlns:sodipodi="http://sodipodi.sourceforge.net/DTD/sodipodi-0.dtd"
   xmlns="http://www.w3.org/2000/svg"
   xmlns:svg="http://www.w3.org/2000/svg"><defs
     id="defs2248" /><sodipodi:namedview
     id="namedview2246"
     pagecolor="#ffffff"
     bordercolor="#000000"
     borderopacity="0.25"
     inkscape:showpageshadow="2"
     inkscape:pageopacity="0.0"
     inkscape:pagecheckerboard="0"
     inkscape:deskcolor="#d1d1d1"
     showgrid="false"
     inkscape:zoom="0.62353473"
     inkscape:cx="906.92623"
     inkscape:cy="76.980475"
     inkscape:window-width="1920"
     inkscape:window-height="1008"
     inkscape:window-x="0"
     inkscape:window-y="0"
     inkscape:window-maximized="1"
     inkscape:current-layer="g3"><inkscape:page
       x="0"
       y="0"
       id="page2250"
       width="1813"
       height="276"
       margin="0"
       bleed="0" /></sodipodi:namedview><g
     id="g2252"
     inkscape:groupmode="layer"
     inkscape:label="Page 1"
     transform="matrix(1.3333333,0,0,1.3333333,0,1.0782152e-5)"><g
       id="g2254"><g
         id="g1"
         transform="translate(-26.892517,-28.482505)"><g
           id="g2"
           transform="translate(0.74999934,-9.7500005)"><g
             id="g3"
             transform="translate(-183.6814)"><path
               style="font-size:82px;line-height:0;font-family:'PT Sans';-inkscape-font-specification:'PT Sans';letter-spacing:0.8325px;fill:#ffffff;stroke-width:2.47748;fill-opacity:1"
               d="m 513.64253,169.53265 h 6.806 v 57.4 h -6.806 z m 48.80253,57.4 v -23.37 q 0,-6.396 -1.886,-9.594 -1.804,-3.28 -6.724,-3.28 -4.346,0 -7.216,2.378 -2.788,2.296 -3.936,5.822 v 28.044 h -6.56 v -41 h 4.592 l 1.23,5.002 h 0.328 q 1.968,-2.624 5.248,-4.264 3.362,-1.722 7.954,-1.722 3.362,0 5.904,0.82 2.542,0.738 4.182,2.706 1.722,1.968 2.542,5.33 0.902,3.28 0.902,8.364 v 24.764 z m 14.85458,-41 h 6.396 v -2.296 q 0,-3.772 0.574,-6.56 0.656,-2.788 2.05,-4.51 1.394,-1.804 3.608,-2.624 2.214,-0.902 5.494,-0.902 2.624,0 4.592,0.328 2.05,0.328 4.264,1.23 l -1.476,5.494 q -1.886,-0.82 -3.608,-1.066 -1.64,-0.246 -3.116,-0.246 -2.132,0 -3.362,0.656 -1.148,0.656 -1.722,1.968 -0.492,1.23 -0.656,3.116 -0.082,1.804 -0.082,4.264 v 1.148 h 10.906 v 5.74 h -10.906 v 35.26 h -6.56 v -35.26 h -6.396 z m 28.30254,20.5 q 0,-10.414 4.592,-15.908 4.674,-5.576 13.366,-5.576 4.592,0 7.954,1.558 3.444,1.476 5.658,4.346 2.214,2.788 3.28,6.806 1.066,3.936 1.066,8.774 0,10.414 -4.674,15.99 -4.592,5.494 -13.284,5.494 -4.592,0 -8.036,-1.476 -3.362,-1.558 -5.576,-4.346 -2.214,-2.87 -3.28,-6.806 -1.066,-4.018 -1.066,-8.856 z m 6.806,0 q 0,3.116 0.574,5.986 0.656,2.87 1.968,5.002 1.312,2.132 3.444,3.444 2.132,1.312 5.166,1.312 11.152,0.082 11.152,-15.744 0,-3.198 -0.656,-6.068 -0.574,-2.87 -1.886,-5.002 -1.312,-2.132 -3.444,-3.362 -2.132,-1.312 -5.166,-1.312 -11.152,-0.082 -11.152,15.744 z m 59.62644,-14.186 q -2.46,-0.82 -4.674,-0.82 -3.526,0 -5.576,1.968 -2.05,1.886 -2.542,4.838 v 28.7 h -6.56 v -41 h 4.592 l 1.23,5.002 h 0.328 q 1.558,-2.788 3.69,-4.264 2.214,-1.558 5.576,-1.558 2.378,0 5.33,0.82 z m 33.38651,34.686 v -23.206 q 0,-3.28 -0.328,-5.658 -0.246,-2.46 -1.066,-4.1 -0.82,-1.64 -2.378,-2.46 -1.476,-0.82 -3.936,-0.82 -3.772,0 -6.314,2.296 -2.46,2.296 -3.444,5.74 v 28.208 h -6.56 v -41 h 4.592 l 1.23,5.002 h 0.328 q 2.214,-2.624 5.084,-4.264 2.952,-1.722 7.626,-1.722 3.936,0 6.396,1.558 2.542,1.476 3.936,5.248 1.886,-3.198 5.166,-5.002 3.362,-1.804 7.544,-1.804 3.444,0 5.822,0.82 2.378,0.738 3.936,2.706 1.558,1.968 2.214,5.33 0.738,3.362 0.738,8.528 v 24.6 h -6.56 v -24.682 q 0,-2.952 -0.328,-5.084 -0.246,-2.214 -1.148,-3.608 -0.82,-1.476 -2.378,-2.132 -1.476,-0.738 -3.936,-0.738 -4.1,0 -6.396,2.296 -2.296,2.296 -3.28,6.56 v 27.388 z m 42.73454,-37.966 q 3.116,-1.886 7.216,-2.788 4.182,-0.902 8.692,-0.902 4.264,0 6.806,1.148 2.624,1.148 3.936,3.034 1.394,1.804 1.804,4.018 0.492,2.214 0.492,4.428 0,4.92 -0.246,9.594 -0.246,4.674 -0.246,8.856 0,3.034 0.246,5.74 0.246,2.706 0.902,5.002 h -4.838 l -1.722,-5.74 h -0.41 q -0.738,1.148 -1.886,2.296 -1.066,1.066 -2.624,1.968 -1.558,0.82 -3.608,1.394 -2.05,0.574 -4.674,0.574 -2.624,0 -4.92,-0.82 -2.214,-0.82 -3.854,-2.296 -1.64,-1.558 -2.624,-3.69 -0.902,-2.132 -0.902,-4.838 0,-3.608 1.476,-5.986 1.476,-2.46 4.1,-3.854 2.706,-1.476 6.396,-2.05 3.772,-0.656 8.282,-0.656 1.148,0 2.214,0 1.148,0 2.296,0.164 0.246,-2.46 0.246,-4.428 0,-4.51 -1.804,-6.314 -1.804,-1.804 -6.56,-1.804 -1.394,0 -3.034,0.246 -1.558,0.164 -3.28,0.574 -1.64,0.328 -3.198,0.902 -1.476,0.492 -2.624,1.148 z m 11.644,32.882 q 2.296,0 4.1,-0.574 1.804,-0.656 3.116,-1.558 1.312,-0.984 2.132,-2.132 0.902,-1.148 1.312,-2.214 v -6.806 q -1.148,-0.082 -2.378,-0.082 -1.148,-0.082 -2.296,-0.082 -2.542,0 -5.002,0.328 -2.378,0.246 -4.264,1.066 -1.804,0.738 -2.952,2.132 -1.066,1.312 -1.066,3.362 0,2.87 2.05,4.756 2.05,1.804 5.248,1.804 z m 25.10453,-35.916 h 6.396 v -8.118 l 6.56,-1.886 v 10.004 h 11.152 v 5.74 h -11.152 v 22.714 q 0,4.264 1.066,6.068 1.066,1.722 3.608,1.722 2.132,0 3.608,-0.41 1.476,-0.492 3.28,-1.23 l 1.476,5.002 q -2.214,1.066 -4.838,1.722 -2.624,0.656 -5.658,0.656 -5.002,0 -7.052,-2.788 -2.05,-2.87 -2.05,-9.512 v -23.944 h -6.396 z m 35.43655,0 h 6.56 v 41 h -6.56 z m -1.394,-12.464 q 0,-1.886 1.23,-3.198 1.312,-1.394 3.28,-1.394 1.968,0 3.362,1.394 1.394,1.312 1.394,3.198 0,1.886 -1.394,3.116 -1.394,1.23 -3.362,1.23 -1.968,0 -3.28,-1.23 -1.23,-1.23 -1.23,-3.116 z m 33.14047,35.014 h -3.772 v 18.45 h -6.56 v -57.4 h 6.56 v 34.932 l 3.362,-1.148 12.71,-17.384 h 7.626 l -12.546,16.482 -3.362,2.706 4.1,3.28 13.694,18.532 h -8.118 z m 53.40696,3.116 q 0,-3.28 1.148,-6.232 1.148,-3.034 3.116,-5.576 1.968,-2.542 4.428,-4.674 2.542,-2.132 5.248,-3.772 -1.968,-2.952 -3.444,-5.904 -1.394,-2.952 -1.394,-6.396 0,-1.968 0.656,-3.854 0.656,-1.886 2.05,-3.362 1.476,-1.476 3.69,-2.378 2.296,-0.902 5.494,-0.902 3.362,0 5.658,0.902 2.296,0.82 3.69,2.214 1.394,1.394 1.968,3.116 0.656,1.722 0.656,3.526 0,3.444 -2.706,7.134 -2.624,3.608 -8.364,6.97 1.312,2.378 3.034,4.92 1.804,2.46 3.772,4.92 1.968,2.46 4.018,4.92 2.05,2.378 4.1,4.428 0.902,-0.984 1.804,-2.46 0.902,-1.558 1.722,-3.198 0.902,-1.722 1.558,-3.526 0.738,-1.804 1.312,-3.444 l 5.084,2.378 q -0.492,1.394 -1.394,3.362 -0.902,1.886 -2.05,3.936 -1.066,1.968 -2.214,3.854 -1.148,1.804 -2.132,3.034 1.722,1.64 3.116,2.87 1.394,1.148 2.542,2.05 1.23,0.82 2.296,1.558 1.148,0.656 2.296,1.312 l -4.1,4.592 q -4.346,-2.132 -9.922,-7.626 -1.476,1.476 -3.28,2.87 -1.722,1.312 -3.936,2.378 -2.214,1.066 -4.92,1.722 -2.624,0.656 -5.822,0.656 -3.854,0 -7.298,-1.066 -3.362,-1.066 -5.904,-3.116 -2.542,-2.132 -4.1,-5.166 -1.476,-3.034 -1.476,-6.97 z m 32.882,4.592 q -2.378,-2.378 -4.674,-5.166 -2.296,-2.788 -4.428,-5.576 -2.05,-2.788 -3.854,-5.33 -1.722,-2.624 -2.952,-4.592 -2.214,1.64 -4.1,3.362 -1.886,1.722 -3.362,3.69 -1.394,1.886 -2.214,4.1 -0.738,2.214 -0.738,4.756 0,2.542 1.066,4.592 1.066,1.968 2.87,3.362 1.886,1.312 4.264,2.05 2.378,0.738 5.002,0.738 2.05,0 3.936,-0.492 1.968,-0.574 3.69,-1.394 1.722,-0.82 3.116,-1.886 1.476,-1.066 2.378,-2.214 z m -17.384,-37.146 q 0,2.46 0.984,4.92 1.066,2.378 2.706,4.756 4.346,-2.788 5.986,-5.084 1.722,-2.296 1.722,-4.018 0,-2.624 -1.312,-4.264 -1.23,-1.64 -4.346,-1.64 -2.952,0 -4.346,1.476 -1.394,1.476 -1.394,3.854 z m 96.78502,31.98 h -21.15604 l -5.74,15.908 h -6.724 l 21.73004,-58.302 h 3.116 l 21.812,58.302 h -7.134 z m -18.94204,-5.904 h 16.89204 l -6.396,-17.466 -2.05,-8.692 h -0.082 l -2.05,8.856 z m 45.68644,-19.188 v 23.37 q 0,3.198 0.328,5.658 0.41,2.378 1.312,4.018 0.902,1.558 2.46,2.378 1.558,0.82 3.936,0.82 2.214,0 3.936,-0.656 1.722,-0.738 3.034,-1.968 1.394,-1.23 2.378,-2.788 1.066,-1.64 1.722,-3.444 v -27.388 h 6.56 v 29.356 q 0,2.952 0.164,6.15 0.246,3.116 0.738,5.494 h -4.51 l -1.64,-6.478 h -0.41 q -1.886,3.198 -5.084,5.33 -3.198,2.132 -8.118,2.132 -3.28,0 -5.822,-0.82 -2.46,-0.738 -4.182,-2.706 -1.64,-1.968 -2.542,-5.248 -0.82,-3.362 -0.82,-8.446 v -24.764 z m 33.7145,0 h 6.396 v -8.118 l 6.56,-1.886 v 10.004 h 11.152 v 5.74 h -11.152 v 22.714 q 0,4.264 1.066,6.068 1.066,1.722 3.608,1.722 2.132,0 3.608,-0.41 1.476,-0.492 3.28,-1.23 l 1.476,5.002 q -2.214,1.066 -4.838,1.722 -2.624,0.656 -5.658,0.656 -5.002,0 -7.052,-2.788 -2.05,-2.87 -2.05,-9.512 v -23.944 h -6.396 z m 30.8446,20.5 q 0,-10.414 4.592,-15.908 4.674,-5.576 13.366,-5.576 4.592,0 7.954,1.558 3.444,1.476 5.658,4.346 2.214,2.788 3.28,6.806 1.066,3.936 1.066,8.774 0,10.414 -4.674,15.99 -4.592,5.494 -13.284,5.494 -4.592,0 -8.036,-1.476 -3.362,-1.558 -5.576,-4.346 -2.214,-2.87 -3.28,-6.806 -1.066,-4.018 -1.066,-8.856 z m 6.806,0 q 0,3.116 0.574,5.986 0.656,2.87 1.968,5.002 1.312,2.132 3.444,3.444 2.132,1.312 5.166,1.312 11.152,0.082 11.152,-15.744 0,-3.198 -0.656,-6.068 -0.574,-2.87 -1.886,-5.002 -1.312,-2.132 -3.444,-3.362 -2.132,-1.312 -5.166,-1.312 -11.152,-0.082 -11.152,15.744 z m 64.3004,20.5 v -23.206 q 0,-3.28 -0.328,-5.658 -0.246,-2.46 -1.066,-4.1 -0.82,-1.64 -2.378,-2.46 -1.476,-0.82 -3.936,-0.82 -3.772,0 -6.314,2.296 -2.46,2.296 -3.444,5.74 v 28.208 h -6.56 v -41 h 4.592 l 1.23,5.002 h 0.328 q 2.214,-2.624 5.084,-4.264 2.952,-1.722 7.626,-1.722 3.936,0 6.396,1.558 2.542,1.476 3.936,5.248 1.886,-3.198 5.166,-5.002 3.362,-1.804 7.544,-1.804 3.444,0 5.822,0.82 2.378,0.738 3.936,2.706 1.558,1.968 2.214,5.33 0.738,3.362 0.738,8.528 v 24.6 h -6.56 v -24.682 q 0,-2.952 -0.328,-5.084 -0.246,-2.214 -1.148,-3.608 -0.82,-1.476 -2.378,-2.132 -1.476,-0.738 -3.936,-0.738 -4.1,0 -6.396,2.296 -2.296,2.296 -3.28,6.56 v 27.388 z m 42.7345,-37.966 q 3.116,-1.886 7.216,-2.788 4.182,-0.902 8.692,-0.902 4.264,0 6.806,1.148 2.624,1.148 3.936,3.034 1.394,1.804 1.804,4.018 0.492,2.214 0.492,4.428 0,4.92 -0.246,9.594 -0.246,4.674 -0.246,8.856 0,3.034 0.246,5.74 0.246,2.706 0.902,5.002 h -4.838 l -1.722,-5.74 h -0.41 q -0.738,1.148 -1.886,2.296 -1.066,1.066 -2.624,1.968 -1.558,0.82 -3.608,1.394 -2.05,0.574 -4.674,0.574 -2.624,0 -4.92,-0.82 -2.214,-0.82 -3.854,-2.296 -1.64,-1.558 -2.624,-3.69 -0.902,-2.132 -0.902,-4.838 0,-3.608 1.476,-5.986 1.476,-2.46 4.1,-3.854 2.706,-1.476 6.396,-2.05 3.772,-0.656 8.282,-0.656 1.148,0 2.214,0 1.148,0 2.296,0.164 0.246,-2.46 0.246,-4.428 0,-4.51 -1.804,-6.314 -1.804,-1.804 -6.56,-1.804 -1.394,0 -3.034,0.246 -1.558,0.164 -3.28,0.574 -1.64,0.328 -3.198,0.902 -1.476,0.492 -2.624,1.148 z m 11.644,32.882 q 2.296,0 4.1,-0.574 1.804,-0.656 3.116,-1.558 1.312,-0.984 2.132,-2.132 0.902,-1.148 1.312,-2.214 v -6.806 q -1.148,-0.082 -2.378,-0.082 -1.148,-0.082 -2.296,-0.082 -2.542,0 -5.002,0.328 -2.378,0.246 -4.264,1.066 -1.804,0.738 -2.952,2.132 -1.066,1.312 -1.066,3.362 0,2.87 2.05,4.756 2.05,1.804 5.248,1.804 z m 25.1045,-35.916 h 6.396 v -8.118 l 6.56,-1.886 v 10.004 h 11.152 v 5.74 h -11.152 v 22.714 q 0,4.264 1.066,6.068 1.066,1.722 3.608,1.722 2.132,0 3.608,-0.41 1.476,-0.492 3.28,-1.23 l 1.476,5.002 q -2.214,1.066 -4.838,1.722 -2.624,0.656 -5.658,0.656 -5.002,0 -7.052,-2.788 -2.05,-2.87 -2.05,-9.512 v -23.944 h -6.396 z m 35.4366,0 h 6.56 v 41 h -6.56 z m -1.394,-12.464 q 0,-1.886 1.23,-3.198 1.312,-1.394 3.28,-1.394 1.968,0 3.362,1.394 1.394,1.312 1.394,3.198 0,1.886 -1.394,3.116 -1.394,1.23 -3.362,1.23 -1.968,0 -3.28,-1.23 -1.23,-1.23 -1.23,-3.116 z m 40.8484,42.312 q 0,-2.46 -1.476,-3.854 -1.476,-1.394 -3.69,-2.296 -2.132,-0.984 -4.756,-1.804 -2.542,-0.902 -4.756,-2.214 -2.132,-1.394 -3.608,-3.526 -1.476,-2.132 -1.476,-5.74 0,-5.904 3.362,-8.61 3.362,-2.788 9.348,-2.788 4.428,0 7.38,0.82 3.034,0.738 5.248,1.804 l -1.558,5.412 q -1.886,-0.902 -4.592,-1.558 -2.624,-0.738 -5.658,-0.738 -3.608,0 -5.33,1.23 -1.64,1.23 -1.64,4.264 0,2.132 1.476,3.362 1.476,1.148 3.608,2.132 2.214,0.902 4.756,1.804 2.624,0.902 4.756,2.378 2.214,1.476 3.69,3.772 1.476,2.214 1.476,5.904 0,2.624 -0.902,4.92 -0.82,2.296 -2.624,3.936 -1.804,1.64 -4.51,2.542 -2.624,0.984 -6.232,0.984 -4.674,0 -7.954,-0.902 -3.28,-0.902 -5.494,-2.132 l 1.968,-5.576 q 1.886,1.066 4.92,1.968 3.034,0.902 6.15,0.902 3.526,0 5.822,-1.394 2.296,-1.394 2.296,-5.002 z m 18.7085,-29.848 h 6.56 v 41 h -6.56 z m -1.394,-12.464 q 0,-1.886 1.23,-3.198 1.312,-1.394 3.28,-1.394 1.968,0 3.362,1.394 1.394,1.312 1.394,3.198 0,1.886 -1.394,3.116 -1.394,1.23 -3.362,1.23 -1.968,0 -3.28,-1.23 -1.23,-1.23 -1.23,-3.116 z m 52.7385,50.184 q -2.46,1.968 -6.232,3.116 -3.69,1.148 -7.872,1.148 -4.674,0 -8.118,-1.476 -3.444,-1.558 -5.658,-4.346 -2.214,-2.87 -3.28,-6.806 -1.066,-3.936 -1.066,-8.856 0,-10.496 4.674,-15.99 4.674,-5.494 13.366,-5.494 2.788,0 5.576,0.656 2.788,0.574 5.002,2.296 2.214,1.722 3.608,4.92 1.394,3.116 1.394,8.282 0,2.706 -0.492,5.986 h -26.322 q 0,3.608 0.738,6.396 0.738,2.788 2.296,4.756 1.558,1.886 4.018,2.952 2.542,0.984 6.15,0.984 2.788,0 5.576,-0.984 2.788,-0.984 4.182,-2.296 z m -14.104,-32.964 q -4.838,0 -7.79,2.542 -2.87,2.542 -3.444,8.692 h 20.336 q 0,-6.232 -2.378,-8.692 -2.378,-2.542 -6.724,-2.542 z m 46.0145,1.558 q -2.46,-0.82 -4.674,-0.82 -3.526,0 -5.576,1.968 -2.05,1.886 -2.542,4.838 v 28.7 h -6.56 v -41 h 4.592 l 1.23,5.002 h 0.328 q 1.558,-2.788 3.69,-4.264 2.214,-1.558 5.576,-1.558 2.378,0 5.33,0.82 z m 15.2645,-6.314 v 23.37 q 0,3.198 0.328,5.658 0.41,2.378 1.312,4.018 0.902,1.558 2.46,2.378 1.558,0.82 3.936,0.82 2.214,0 3.936,-0.656 1.722,-0.738 3.034,-1.968 1.394,-1.23 2.378,-2.788 1.066,-1.64 1.722,-3.444 v -27.388 h 6.56 v 29.356 q 0,2.952 0.164,6.15 0.246,3.116 0.738,5.494 h -4.51 l -1.64,-6.478 h -0.41 q -1.886,3.198 -5.084,5.33 -3.198,2.132 -8.118,2.132 -3.28,0 -5.822,-0.82 -2.46,-0.738 -4.182,-2.706 -1.64,-1.968 -2.542,-5.248 -0.82,-3.362 -0.82,-8.446 v -24.764 z m 65.4484,41 v -23.37 q 0,-6.396 -1.886,-9.594 -1.804,-3.28 -6.724,-3.28 -4.346,0 -7.216,2.378 -2.788,2.296 -3.936,5.822 v 28.044 h -6.56 v -41 h 4.592 l 1.23,5.002 h 0.328 q 1.968,-2.624 5.248,-4.264 3.362,-1.722 7.954,-1.722 3.362,0 5.904,0.82 2.542,0.738 4.182,2.706 1.722,1.968 2.542,5.33 0.902,3.28 0.902,8.364 v 24.764 z m 50.7706,1.886 q 0,7.954 -4.264,11.726 -4.182,3.772 -12.464,3.772 -4.92,0 -7.954,-0.656 -2.952,-0.574 -5.084,-1.558 l 1.722,-5.576 q 1.886,0.738 4.182,1.394 2.296,0.656 5.986,0.656 3.444,0 5.576,-0.656 2.214,-0.574 3.526,-2.05 1.312,-1.394 1.804,-3.69 0.492,-2.214 0.492,-5.33 v -3.936 h -0.328 q -1.64,2.378 -4.182,3.69 -2.542,1.23 -6.642,1.23 -8.282,0 -12.218,-5.166 -3.854,-5.166 -3.854,-16.072 0,-10.496 5.002,-15.908 5.002,-5.494 14.76,-5.494 4.674,0 7.954,0.738 3.362,0.738 5.986,1.722 z m -16.482,-6.724 q 4.182,0 6.56,-2.05 2.378,-2.132 3.362,-6.56 v -20.992 q -3.28,-1.558 -8.364,-1.558 -5.576,0 -8.774,3.772 -3.198,3.772 -3.198,11.808 0,3.444 0.574,6.314 0.574,2.87 1.804,4.92 1.23,2.05 3.198,3.198 1.968,1.148 4.838,1.148 z"
               id="text2"
               aria-label="Informatik &amp; Automatisierung" /><path
               d="m 513.64254,40.263901 h 56.025 v 16.47 h -37.53 v 23.355 h 34.56 v 16.47 h -34.56 V 134.7639 h -18.495 z m 68.60242,30.915 q 5.4,-2.43 12.825,-3.78 7.425,-1.485 15.525,-1.485 7.02,0 11.745,1.755 4.725,1.62 7.425,4.725 2.835,3.105 3.915,7.425 1.215,4.32 1.215,9.72 0,5.94 -0.405,12.014999 -0.405,5.94 -0.54,11.745 0,5.805 0.405,11.34 0.405,5.4 2.025,10.26 h -14.31 l -2.835,-9.315 h -0.675 q -2.7,4.185 -7.56,7.29 -4.725,2.97 -12.285,2.97 -4.725,0 -8.505,-1.35 -3.78,-1.485 -6.48,-4.05 -2.7,-2.7 -4.185,-6.21 -1.485,-3.645 -1.485,-8.1 0,-6.21 2.7,-10.395 2.835,-4.32 7.965,-6.884999 5.265,-2.7 12.42,-3.645 7.29,-1.08 16.2,-0.675 0.945,-7.56 -1.08,-10.8 -2.025,-3.375 -9.045,-3.375 -5.265,0 -11.205,1.08 -5.805,1.08 -9.585,2.835 z m 22.275,50.219999 q 5.265,0 8.37,-2.295 3.105,-2.43 4.59,-5.13 v -8.775 q -4.185,-0.405 -8.1,-0.135 -3.78,0.27 -6.75,1.215 -2.97,0.945 -4.725,2.7 -1.755,1.755 -1.755,4.455 0,3.78 2.16,5.94 2.295,2.025 6.21,2.025 z m 93.71254,9.18 q -4.05,2.97 -9.855,4.455 -5.67,1.62 -11.745,1.62 -8.1,0 -13.77,-2.565 -5.535,-2.565 -9.045,-7.155 -3.51,-4.725 -5.13,-11.34 -1.485,-6.615 -1.485,-14.58 0,-17.144999 7.695,-26.324999 7.695,-9.315 22.41,-9.315 7.425,0 11.88,1.215 4.59,1.215 8.235,3.105 l -4.185,14.31 q -3.105,-1.485 -6.21,-2.295 -2.97,-0.81 -6.885,-0.81 -7.29,0 -11.07,4.86 -3.78,4.725 -3.78,15.254999 0,4.32 0.945,7.965 0.945,3.645 2.835,6.345 1.89,2.7 4.86,4.32 3.105,1.485 7.155,1.485 4.455,0 7.56,-1.08 3.105,-1.215 5.535,-2.835 z m 52.80758,4.185 V 96.423901 q 0,-8.235 -2.295,-11.88 -2.295,-3.645 -8.37,-3.645 -4.455,0 -8.235,3.105 -3.645,2.97 -4.86,7.695 V 134.7639 h -17.55 V 40.263901 h 17.55 v 34.56 h 0.54 q 3.24,-4.32 7.965,-6.885 4.725,-2.565 12.015,-2.565 5.13,0 9.045,1.35 3.915,1.35 6.48,4.455 2.7,3.105 3.915,8.505 1.35,5.265 1.35,13.095 V 134.7639 Z m 61.04252,-18.63 q 0,-2.7 -2.295,-4.32 -2.295,-1.62 -5.67,-2.97 -3.375,-1.35 -7.425,-2.7 -4.05,-1.485 -7.425,-3.915 -3.375,-2.564999 -5.67,-6.344999 -2.295,-3.915 -2.295,-9.99 0,-9.99 5.94,-15.255 5.94,-5.265 17.145,-5.265 7.695,0 13.905,1.62 6.21,1.62 9.72,3.645 l -3.915,12.69 q -3.105,-1.215 -7.83,-2.565 -4.725,-1.35 -9.585,-1.35 -7.83,0 -7.83,6.075 0,2.43 2.295,3.915 2.295,1.485 5.67,2.835 3.375,1.215 7.425,2.7 4.05,1.485 7.425,3.915 3.375,2.294999 5.67,6.074999 2.295,3.78 2.295,9.72 0,10.26 -6.615,16.2 -6.48,5.805 -19.575,5.805 -7.155,0 -13.5,-1.89 -6.21,-1.755 -10.125,-4.185 l 4.86,-13.095 q 3.105,1.755 8.235,3.51 5.13,1.62 10.53,1.62 3.915,0 6.21,-1.485 2.43,-1.485 2.43,-4.995 z m 77.64761,14.445 q -4.05,2.97 -9.855,4.455 -5.67,1.62 -11.745,1.62 -8.1,0 -13.77,-2.565 -5.535,-2.565 -9.045,-7.155 -3.51,-4.725 -5.13,-11.34 -1.485,-6.615 -1.485,-14.58 0,-17.144999 7.695,-26.324999 7.695,-9.315 22.41,-9.315 7.425,0 11.88,1.215 4.59,1.215 8.235,3.105 l -4.185,14.31 q -3.105,-1.485 -6.21,-2.295 -2.97,-0.81 -6.885,-0.81 -7.29,0 -11.07,4.86 -3.78,4.725 -3.78,15.254999 0,4.32 0.945,7.965 0.945,3.645 2.835,6.345 1.89,2.7 4.86,4.32 3.105,1.485 7.155,1.485 4.455,0 7.56,-1.08 3.105,-1.215 5.535,-2.835 z m 52.8076,4.185 V 96.423901 q 0,-8.235 -2.295,-11.88 -2.295,-3.645 -8.37,-3.645 -4.455,0 -8.235,3.105 -3.645,2.97 -4.86,7.695 V 134.7639 h -17.55 V 40.263901 h 17.55 v 34.56 h 0.54 q 3.24,-4.32 7.965,-6.885 4.725,-2.565 12.015,-2.565 5.13,0 9.045,1.35 3.915,1.35 6.48,4.455 2.7,3.105 3.915,8.505 1.35,5.265 1.35,13.095 V 134.7639 Z m 32.6925,-63.584999 q 5.4,-2.43 12.825,-3.78 7.425,-1.485 15.52499,-1.485 7.02,0 11.745,1.755 4.725,1.62 7.425,4.725 2.835,3.105 3.915,7.425 1.215,4.32 1.215,9.72 0,5.94 -0.405,12.014999 -0.405,5.94 -0.54,11.745 0,5.805 0.405,11.34 0.405,5.4 2.025,10.26 h -14.31 l -2.835,-9.315 h -0.675 q -2.7,4.185 -7.56,7.29 -4.72499,2.97 -12.28499,2.97 -4.725,0 -8.505,-1.35 -3.78,-1.485 -6.48,-4.05 -2.7,-2.7 -4.185,-6.21 -1.485,-3.645 -1.485,-8.1 0,-6.21 2.7,-10.395 2.835,-4.32 7.965,-6.884999 5.265,-2.7 12.42,-3.645 7.28999,-1.08 16.19999,-0.675 0.945,-7.56 -1.08,-10.8 -2.025,-3.375 -9.045,-3.375 -5.26499,0 -11.20499,1.08 -5.805,1.08 -9.585,2.835 z m 22.275,50.219999 q 5.26499,0 8.36999,-2.295 3.105,-2.43 4.59,-5.13 v -8.775 q -4.185,-0.405 -8.1,-0.135 -3.77999,0.27 -6.74999,1.215 -2.97,0.945 -4.725,2.7 -1.755,1.755 -1.755,4.455 0,3.78 2.16,5.94 2.295,2.025 6.21,2.025 z m 39.71249,-54.134999 h 9.315 v -3.78 q 0,-12.825 5.4,-18.495 5.4,-5.805 15.66,-5.805 10.8,0 17.955,2.565 l -3.375,14.04 q -3.105,-1.08 -5.535,-1.35 -2.295,-0.405 -4.86,-0.405 -2.7,0 -4.32,0.81 -1.485,0.81 -2.295,2.565 -0.675,1.62 -0.945,4.185 -0.135,2.43 -0.135,5.67 h 14.85 v 14.85 h -14.85 V 134.7639 h -17.55 V 82.113901 h -9.315 z m 42.2775,0 h 9.315 v -12.69 l 17.55,-4.995 v 17.685 h 16.47 v 14.85 h -16.47 V 108.0339 q 0,7.02 1.35,10.125 1.485,2.97 5.4,2.97 2.7,0 4.59,-0.54 2.025,-0.54 4.455,-1.62 l 3.105,13.5 q -3.645,1.755 -8.505,2.97 -4.86,1.215 -9.855,1.215 -9.315,0 -13.77,-4.725 -4.32,-4.86 -4.32,-15.795 V 82.113901 h -9.315 z m 82.9126,48.869999 q 0,-2.7 -2.295,-4.32 -2.295,-1.62 -5.67,-2.97 -3.375,-1.35 -7.425,-2.7 -4.05,-1.485 -7.425,-3.915 -3.375,-2.564999 -5.67,-6.344999 -2.295,-3.915 -2.295,-9.99 0,-9.99 5.94,-15.255 5.94,-5.265 17.145,-5.265 7.695,0 13.905,1.62 6.21,1.62 9.72,3.645 l -3.915,12.69 q -3.105,-1.215 -7.83,-2.565 -4.725,-1.35 -9.585,-1.35 -7.83,0 -7.83,6.075 0,2.43 2.295,3.915 2.295,1.485 5.67,2.835 3.375,1.215 7.425,2.7 4.05,1.485 7.425,3.915 3.375,2.294999 5.67,6.074999 2.295,3.78 2.295,9.72 0,10.26 -6.615,16.2 -6.48,5.805 -19.575,5.805 -7.155,0 -13.5,-1.89 -6.21,-1.755 -10.125,-4.185 l 4.86,-13.095 q 3.105,1.755 8.235,3.51 5.13,1.62 10.53,1.62 3.915,0 6.21,-1.485 2.43,-1.485 2.43,-4.995 z m 67.1177,-32.399999 q -4.185,-1.485 -7.56,-1.485 -4.725,0 -7.965,2.565 -3.105,2.43 -4.185,6.345 V 134.7639 h -17.55 V 67.263901 h 13.635 l 2.025,8.91 h 0.54 q 2.295,-4.995 6.21,-7.695 3.915,-2.7 9.18,-2.7 3.51,0 7.965,1.485 z m 10.5524,-12.555 q 5.4,-2.43 12.825,-3.78 7.425,-1.485 15.525,-1.485 7.02,0 11.745,1.755 4.725,1.62 7.425,4.725 2.835,3.105 3.915,7.425 1.215,4.32 1.215,9.72 0,5.94 -0.405,12.014999 -0.405,5.94 -0.54,11.745 0,5.805 0.405,11.34 0.405,5.4 2.025,10.26 h -14.31 l -2.835,-9.315 h -0.675 q -2.7,4.185 -7.56,7.29 -4.725,2.97 -12.285,2.97 -4.725,0 -8.505,-1.35 -3.78,-1.485 -6.48,-4.05 -2.7,-2.7 -4.185,-6.21 -1.485,-3.645 -1.485,-8.1 0,-6.21 2.7,-10.395 2.835,-4.32 7.965,-6.884999 5.265,-2.7 12.42,-3.645 7.29,-1.08 16.2,-0.675 0.945,-7.56 -1.08,-10.8 -2.025,-3.375 -9.045,-3.375 -5.265,0 -11.205,1.08 -5.805,1.08 -9.585,2.835 z m 22.275,50.219999 q 5.265,0 8.37,-2.295 3.105,-2.43 4.59,-5.13 v -8.775 q -4.185,-0.405 -8.1,-0.135 -3.78,0.27 -6.75,1.215 -2.97,0.945 -4.725,2.7 -1.755,1.755 -1.755,4.455 0,3.78 2.16,5.94 2.295,2.025 6.21,2.025 z m 38.9026,-54.134999 h 9.315 v -12.69 l 17.55,-4.995 v 17.685 h 16.47 v 14.85 h -16.47 V 108.0339 q 0,7.02 1.35,10.125 1.485,2.97 5.4,2.97 2.7,0 4.59,-0.54 2.025,-0.54 4.455,-1.62 l 3.105,13.5 q -3.645,1.755 -8.505,2.97 -4.86,1.215 -9.855,1.215 -9.315,0 -13.77,-4.725 -4.32,-4.86 -4.32,-15.795 V 82.113901 h -9.315 z"
               id="text1"
               style="font-weight:bold;font-size:135px;line-height:0;font-family:'PT Sans';-inkscape-font-specification:'PT Sans Bold';letter-spacing:0.8325px;fill:#ffffff;stroke-width:2.47748;fill-opacity:1"
               aria-label="Fachschaftsrat" /><g
               transform="matrix(0.04294515,0,0,-0.04294515,209.82397,244.20239)"
               id="g12"
               style="fill:#dc2626;fill-opacity:1"><path
                 id="path14"
                 style="fill:#dc2626;fill-opacity:1;fill-rule:nonzero;stroke:none"
                 d="m 830.23,4402.6 c -90.625,6.96 -182.859,32.29 -271.406,0 -1.609,-25.33 -3.23,-50.66 -4.883,-76 77.153,-8.82 166.852,22.56 234.004,-24.86 11.621,-36.93 -2.093,-79.21 -44.859,-82.93 -62.492,-6.53 -125.234,-2.09 -187.988,-2.09 0.496,-85.99 0.496,-172.18 0.254,-258.17 79.703,-9.53 191.921,34.64 237.918,-54.37 -10.692,-12.08 -31.817,-36.48 -42.282,-48.55 -122.453,-15.34 -247.23,-3.95 -370.597,-6.74 -53.457,-6.98 -94.348,49.96 -58.805,95.04 39.047,21.14 85.281,13 128.035,16.71 -1.168,84.13 -1.391,168.23 0.238,252.35 -45.535,4.65 -131.507,-6.28 -128.968,61.57 0.476,62.98 82.027,49.74 124.785,53.45 6.043,54.37 5.586,119.19 53.437,155.9 99.926,62.98 227.723,49.5 334.371,11.4 30.903,-26.96 4.399,-61.59 -3.254,-92.71 z m 342.95,-197.99 c -0.45,334.61 -334.36,612.74 -662.907,561.38 C 219.121,4729.28 -18.8086,4454.18 1.17188,4158.84 3.96484,3842.38 301.855,3573.3 615.988,3594.45 c 310.903,9.06 580.202,297.65 557.192,610.16" /><path
                 id="path16"
                 style="fill:#dc2626;fill-opacity:1;fill-rule:nonzero;stroke:none"
                 d="m 3240.47,1705.04 c -125.1,-72.15 -226.21,32.58 -226.21,32.58 l -508.8,882.35 c 0,0 -40.3,138.09 85.52,211.4 125.81,73.3 226.89,-31.25 226.89,-31.25 l 508.82,-882.34 c 0,0 38.89,-140.6 -86.22,-212.74 z M 4448.25,753.41 c -37.63,131.52 -127.56,239.129 -186.36,360.86 -345.5,600.42 -692.41,1200.36 -1040.01,1799.62 -89.47,133.6 -145.71,294.38 -275.35,397.08 -117.57,95.5 -272.77,146.39 -424.28,133.6 -181.7,-20.2 -354.11,-122.68 -449.38,-280.45 -297.89,-520.46 -601.81,-1037.69 -898.08,-1559.13 -3.94,433.15 0.49,866.48 -2.06,1299.83 -5.35,300.22 -281.144,565.78 -581.839,554.4 C 286.961,3473.86 7.69531,3206.9 1.64844,2903.9 1.17188,2122.01 0.953125,1339.89 1.88281,558.031 7.4375,261.75 272.559,3.60938 567.883,0.808594 791.895,-11.7305 1001.46,122.59 1113.47,311.48 c 191.24,334.598 384.78,667.579 577.42,1001.24 53.19,84.57 97.57,179.61 181.69,238.86 205.17,167.97 528.15,166.59 732.85,-1.63 73.66,-52.73 117.11,-134.07 162.88,-209.84 184.01,-313.67 362.02,-630.61 549.29,-942.419 37.89,-67.152 73.89,-136.179 125.25,-194.48 C 3548.56,83.5195 3705.4,9.19141 3865.26,6.62109 4072.77,-1.51172 4281.9,110.25 4385.29,291.262 c 88.29,135.25 98.06,308.347 62.96,462.148" /></g></g></g></g></g></g></svg>
